<?xml version="1.0" encoding="utf-8"?>
<svg xmlns="http://www.w3.org/2000/svg" viewBox="0 0 500 500">
  <g xmlns="http://www.w3.org/2000/svg" id="group-1" fill="#f33232" transform="matrix(0.912252, 0, 0, 0.888646, 364.367462, 145.377502)" style="">
    <path d="M 102.367 214.124 C 115.253 183.599 121.872 150.792 121.825 117.655 C 121.825 84.235 115.277 51.795 102.367 21.187 L 102.367 -111.3 L -29.675 -111.3 C -60.312 -124.32 -93.288 -131.03 -126.57 -130.99 C -160.15 -130.99 -192.73 -124.35 -223.46 -111.3 L -355.52 -111.3 L -355.52 21.177 C -368.41 51.709 -375.01 84.518 -374.96 117.655 C -374.96 151.094 -368.41 183.534 -355.52 214.124 L -355.52 346.597 L -223.46 346.597 C -192.82 359.64 -159.87 366.345 -126.57 366.305 C -93.007 366.305 -60.429 359.649 -29.675 346.597 L 102.367 346.597 L 102.367 214.124 Z M 88.756 -97.685 L 88.756 -6.382 C 85.856 -11.434 82.769 -16.368 79.495 -21.209 C 78.91 -22.098 78.255 -22.94 77.647 -23.805 C 74.233 -28.74 70.654 -33.558 66.889 -38.235 C 65.696 -39.685 64.527 -41.158 63.311 -42.585 C 58.867 -47.941 54.19 -53.109 49.302 -58.044 C 43.058 -64.265 36.463 -70.135 29.587 -75.654 C 24.956 -79.396 20.209 -82.974 15.321 -86.365 C 14.409 -86.997 13.52 -87.698 12.585 -88.33 C 7.72 -91.627 2.762 -94.738 -2.313 -97.685 L 88.756 -97.685 Z M -341.91 -97.685 L -250.85 -97.685 C -255.94 -94.738 -260.88 -91.604 -265.74 -88.33 C -266.65 -87.698 -267.54 -86.997 -268.46 -86.365 C -273.37 -82.974 -278.14 -79.373 -282.77 -75.631 C -289.64 -70.111 -296.22 -64.241 -302.46 -58.044 L -302.62 -57.88 C -308.77 -51.659 -314.57 -45.111 -320.02 -38.258 C -323.81 -33.581 -327.41 -28.74 -330.83 -23.805 C -331.41 -22.94 -332.07 -22.098 -332.65 -21.209 C -335.9 -16.392 -339.01 -11.457 -341.91 -6.382 L -341.91 -97.685 Z M -341.91 332.993 L -341.91 241.685 C -338.99 246.765 -335.88 251.707 -332.65 256.541 C -332.07 257.411 -331.41 258.227 -330.83 259.09 C -326.36 265.58 -321.57 271.85 -316.49 277.881 C -312 283.204 -307.39 288.401 -302.51 293.317 L -302.48 293.335 C -296.24 299.547 -289.64 305.419 -282.77 310.929 C -278.14 314.683 -273.37 318.275 -268.46 321.694 C -267.54 322.328 -266.65 323.018 -265.74 323.643 C -260.88 326.917 -255.94 330.055 -250.85 332.993 L -341.91 332.993 Z M -219.46 333.556 C -274.79 309.767 -318.86 265.575 -342.48 210.16 C -354.99 180.933 -361.42 149.454 -361.37 117.655 C -361.37 85.568 -355.01 54.452 -342.48 25.16 C -318.86 -30.26 -274.79 -74.461 -219.46 -98.246 C -190.13 -110.92 -158.51 -117.45 -126.57 -117.4 C -94.34 -117.4 -63.119 -110.94 -33.675 -98.246 C 21.659 -74.461 65.696 -30.26 89.317 25.151 C 101.853 54.377 108.284 85.856 108.237 117.655 C 108.237 149.723 101.876 180.849 89.317 210.153 C 65.72 265.57 21.659 309.762 -33.675 333.547 C -63.002 346.23 -94.621 352.745 -126.57 352.691 C -158.51 352.752 -190.13 346.239 -219.46 333.556 Z M 88.756 332.993 L -2.313 332.993 C 2.786 330.055 7.744 326.917 12.585 323.643 C 13.52 323.018 14.409 322.319 15.321 321.685 C 20.185 318.285 24.956 314.713 29.564 310.974 C 31.06 309.776 32.51 308.588 33.96 307.365 C 39.269 302.919 44.368 298.256 49.279 293.389 L 49.606 293.043 C 55.71 286.85 61.487 280.335 66.889 273.527 C 70.631 268.875 74.209 264.095 77.624 259.172 C 78.232 258.283 78.887 257.429 79.495 256.522 C 82.745 251.697 85.833 246.765 88.756 241.695 L 88.756 332.993 Z" style="fill: rgb(30, 144, 255);"/>
  </g>
  <path d="M 247.167 345.365 C 222.036 339.539 201.289 326.265 184.928 305.542 C 168.565 284.819 160.384 261.807 160.384 236.507 L 160.384 175.587 L 247.167 145.626 L 333.95 175.587 L 333.95 236.507 C 333.95 261.807 325.769 284.819 309.406 305.542 C 293.044 326.265 272.298 339.539 247.167 345.365 Z M 247.167 324.393 C 265.969 318.9 281.518 307.914 293.813 291.435 C 306.107 274.957 312.254 256.648 312.254 236.507 L 312.254 189.318 L 247.167 166.849 L 182.08 189.318 L 182.08 236.507 C 182.08 256.648 188.227 274.957 200.521 291.435 C 212.815 307.914 228.364 318.9 247.167 324.393 Z M 247.167 245.496 Z" style="stroke-width: 1; fill: rgb(30, 144, 255);"/>
</svg>