<?xml version="1.0" encoding="utf-8"?>
<svg xmlns="http://www.w3.org/2000/svg" viewBox="0 0 500 500">
  <g xmlns="http://www.w3.org/2000/svg" transform="matrix(7.788807, 0, 0, 7.788807, 0.323099, 2.703616)" style="">
    <path d="M32.105 26.297c-3.863-9.098-14.842-6.841-14.914 3.719-.04 5.799 3.176 8.808 14.937 16.919 10.688-7.172 14.945-11.183 14.905-16.982-.073-10.586-11.244-12.391-14.928-3.656" style="fill: rgb(39, 204, 78);"/>
    <path d="M57.355 42.637A27.25 27.25 0 0 0 59.501 32c0-3.685-.724-7.262-2.146-10.637V6.756H42.794a27.2 27.2 0 0 0-10.683-2.172c-3.702 0-7.295.733-10.683 2.172H6.867v14.606A27.3 27.3 0 0 0 4.722 32c0 3.687.724 7.264 2.145 10.637v14.607h14.561a27.2 27.2 0 0 0 10.683 2.173c3.701 0 7.294-.734 10.683-2.173h14.561zm-1.5-34.381v10.068a28 28 0 0 0-1.021-1.636c-.065-.098-.138-.19-.204-.286a27 27 0 0 0-1.188-1.591q-.194-.242-.393-.481a27 27 0 0 0-1.545-1.704 27 27 0 0 0-2.174-1.94 27 27 0 0 0-1.573-1.182c-.102-.071-.2-.147-.303-.217a28 28 0 0 0-1.642-1.031zm-47.488 0h10.042q-.842.488-1.643 1.032c-.102.069-.199.145-.3.215q-.811.565-1.577 1.185a27 27 0 0 0-2.173 1.939l-.017.018a27 27 0 0 0-1.919 2.164 27 27 0 0 0-1.19 1.593c-.066.096-.138.188-.203.285q-.538.799-1.021 1.636V8.256zm0 47.488V45.676q.483.84 1.022 1.638c.064.096.135.186.2.281a27 27 0 0 0 1.581 2.072c.494.587 1.002 1.16 1.543 1.702l.002.002a27 27 0 0 0 2.173 1.94q.767.621 1.579 1.187c.101.07.197.146.299.215q.802.543 1.642 1.031zm13.502.062A25.83 25.83 0 0 1 8.306 42.2 25.8 25.8 0 0 1 6.222 32c0-3.538.701-6.969 2.084-10.199A25.84 25.84 0 0 1 21.869 8.194a25.7 25.7 0 0 1 10.242-2.111c3.553 0 6.998.71 10.242 2.111A25.84 25.84 0 0 1 55.916 21.8 25.8 25.8 0 0 1 58.001 32c0 3.536-.701 6.968-2.085 10.199a25.83 25.83 0 0 1-13.563 13.606 25.7 25.7 0 0 1-10.242 2.111 25.7 25.7 0 0 1-10.242-2.11m33.986-.062H45.813q.842-.488 1.642-1.031c.103-.069.2-.146.302-.216a28 28 0 0 0 1.571-1.181q.245-.197.484-.398a28 28 0 0 0 1.69-1.541l.035-.038a27 27 0 0 0 1.907-2.152q.619-.769 1.182-1.583c.068-.098.141-.192.208-.292q.537-.797 1.02-1.635z" style="fill: rgb(39, 204, 78);"/>
  </g>
</svg>